<?xml version="1.0" encoding="UTF-8"?>
<svg xmlns="http://www.w3.org/2000/svg" xmlns:xlink="http://www.w3.org/1999/xlink" version="1.1" x="0px" y="0px" viewBox="0 0 256 256" enable-background="new 0 0 256 256" xml:space="preserve">
    <defs>
    <style>
      .cls-1 {
        fill: #4fc6ff;
        stroke-width: 0px;
      }
    </style>
  </defs>
<g><g><g><path class="cls-1" fill="#000000" d="M123.8,250.1c-16.3,0-31.9-3.1-46.8-9.2c-14.9-6.2-28-15-39.5-26.5c-2.8-2.8-4.1-6.1-4.1-9.9s1.4-7.1,4.1-9.8c2.8-2.7,6.1-4,9.9-4c3.8,0,7.1,1.3,9.9,4c8.9,8.9,19.1,15.7,30.6,20.5c11.5,4.8,23.5,7.1,36,7.1c7.3,0,14.5-0.8,21.6-2.5c7.1-1.6,13.7-4,19.9-7.1s12-6.8,17.4-11.1c5.5-4.3,10.3-9.2,14.6-14.6c4.3-5.5,8-11.3,11.1-17.4c3.1-6.2,5.5-12.8,7.1-19.9c1.6-7.1,2.5-14.3,2.5-21.6c0-8.5-1.1-16.9-3.4-25c-2.3-8.1-5.4-15.6-9.5-22.5c-4-6.9-9-13.2-14.8-19c-5.8-5.8-12.2-10.7-19-14.8c-6.9-4-14.4-7.2-22.5-9.5c-8.1-2.3-16.5-3.4-25-3.4c-3.9,0-7.2-1.4-9.9-4.1c-2.7-2.7-4.1-6-4.1-9.9c0-1.9,0.4-3.7,1.1-5.4c0.7-1.7,1.7-3.2,3-4.4c1.3-1.2,2.8-2.2,4.5-3c1.7-0.7,3.5-1.1,5.4-1.1c11,0,21.8,1.5,32.4,4.4c10.5,2.9,20.3,7,29.2,12.3c8.9,5.3,17.1,11.7,24.7,19.2c7.5,7.5,13.9,15.7,19.2,24.7c5.3,8.9,9.4,18.7,12.3,29.2c2.9,10.5,4.4,21.3,4.4,32.4c0,9.5-1.1,18.8-3.2,28c-2.1,9.1-5.2,17.7-9.2,25.7c-4,8-8.8,15.5-14.4,22.6c-5.6,7.1-11.9,13.4-19,19c-7.1,5.6-14.7,10.4-22.7,14.4c-8,4-16.6,7.1-25.7,9.2C142.7,249,133.4,250.1,123.8,250.1z M31.3,194c-3.4-4.7-6.4-9.6-8.9-14.7c-2.6-5.1-4.8-10.5-6.7-16c-1.9-5.6-3.3-11.3-4.2-17.3c-1-6-1.4-12-1.4-18c0-13.9,2.4-27.2,7.4-40c4.9-12.8,11.6-24.1,20-33.9c8.4-9.8,18.5-18.1,30.3-24.8c11.7-6.8,24.2-11.2,37.5-13.4c-0.3,1.4-0.4,2.7-0.4,4c0,2.5,0.5,5,1.4,7.4c-7.9,1.4-15.6,3.7-23,6.9c-7.4,3.2-14.2,7.1-20.4,11.7c-6.2,4.6-11.9,10-17.1,16c-5.1,6.1-9.5,12.6-13.1,19.5c-3.6,6.9-6.4,14.4-8.3,22.3c-2,7.9-2.9,16.1-2.9,24.3c0,21.5,6.2,41.1,18.7,58.7c-2.3,1-4.4,2.4-6.2,4.2C32.9,191.8,32.1,192.9,31.3,194z M123.8,208.7c-3.9,0-7.2-1.4-9.9-4.1c-2.7-2.7-4.1-6-4.1-9.9s1.4-7.2,4.1-9.9c2.7-2.7,6-4.1,9.9-4.1c7.2,0,14-1.4,20.5-4.2c6.5-2.8,12.1-6.6,16.8-11.3c4.7-4.7,8.5-10.3,11.3-16.8c2.8-6.5,4.2-13.4,4.2-20.5c0-7.2-1.4-14-4.2-20.5c-2.8-6.5-6.6-12.1-11.3-16.8c-4.7-4.7-10.3-8.5-16.8-11.3c-6.5-2.8-13.4-4.2-20.5-4.2c-3.9,0-7.2-1.4-9.9-4.1c-2.7-2.7-4.1-6-4.1-9.9s1.4-7.2,4.1-9.9c2.7-2.7,6-4.1,9.9-4.1c7.3,0,14.4,1,21.4,2.9c7,1.9,13.4,4.6,19.3,8.1c5.9,3.5,11.4,7.7,16.3,12.7c5,5,9.2,10.4,12.7,16.3c3.5,5.9,6.2,12.4,8.1,19.3c1.9,7,2.9,14.1,2.9,21.4c0,6.3-0.7,12.4-2.1,18.5c-1.4,6-3.4,11.7-6.1,17c-2.6,5.3-5.8,10.3-9.5,15s-7.9,8.9-12.6,12.6c-4.7,3.7-9.7,6.9-15,9.5c-5.3,2.6-11,4.7-17,6.1C136.3,208,130.1,208.7,123.8,208.7z M105,197.9c-7.7-2.1-14.8-5.3-21.4-9.8c-6.6-4.4-12.3-9.7-17-15.7c-4.7-6-8.4-12.9-11.2-20.6c-2.7-7.7-4.1-15.6-4.1-23.8c0-11,2.3-21.3,7-31c4.7-9.7,11-17.9,19.2-24.7c8.1-6.7,17.3-11.5,27.5-14.2c-0.2,1.2-0.3,2.3-0.3,3.1c0,2.8,0.6,5.6,2,8.2c-8.4,2.5-15.9,6.6-22.6,12.3c-6.7,5.7-11.9,12.6-15.7,20.6c-3.8,8.1-5.7,16.6-5.7,25.7c0,13.7,4.1,26,12.4,36.8c8.2,10.8,18.8,18.1,31.6,21.9c-1.3,2.6-2,5.3-2,8.2C104.7,195.6,104.8,196.6,105,197.9z M141.8,159.9c-3.9,0-7.2-1.4-9.9-4.1c-2.7-2.7-4.1-6-4.1-9.9s1.3-7.2,4-9.9c2.3-2.2,3.4-4.9,3.4-8.1c0-3.2-1.1-5.9-3.4-8.1c-2.2-2.2-4.9-3.4-8.1-3.4c-3.9,0-7.2-1.4-9.9-4.1s-4.1-6-4.1-9.9c0-3.9,1.4-7.2,4.1-9.9s6-4.1,9.9-4.1c7.1,0,13.7,1.8,19.7,5.3c6.1,3.5,10.9,8.3,14.4,14.4c3.5,6.1,5.3,12.7,5.3,19.7c0,5.2-1,10.2-3,15.1c-2,4.8-4.9,9-8.6,12.8C149,158.6,145.7,159.9,141.8,159.9z M123.8,159.1c-8.5,0-15.9-3-22-9.1c-6.1-6.1-9.1-13.4-9.1-22c0-4.9,1.1-9.5,3.3-13.7c2.2-4.2,5.1-7.8,8.8-10.7c0.2,4.2,1.7,7.9,4.4,11.2c-3.4,3.9-5.2,8.3-5.2,13.2c0,3.4,0.8,6.7,2.5,9.6c1.6,3,3.9,5.3,6.8,7.1c2.9,1.8,6,2.7,9.4,2.9c0.4,4.2,2,7.9,4.9,11.1C125.6,159,124.3,159.1,123.8,159.1z"/></g></g></g>
</svg>