<?xml version="1.0" encoding="UTF-8"?>
<svg id="Layer_1" data-name="Layer 1" xmlns="http://www.w3.org/2000/svg" version="1.1" viewBox="0 0 248 248">
  <defs>
    <style>
      .cls-1 {
        fill: #4fc6ff;
        stroke-width: 0px;
      }
    </style>
  </defs>
  <path class="cls-1" d="M123.8,98.4c3.9,1.3,7.7,2.6,11.5,3.9,15.5,5.3,31.5,10.7,47.4,16l-6.4,1.4c-2.4.5-4.7,1-7,1.6-5.4,1.2-10.6,2.3-15.9,3.6-2,.4-4,.9-6,1.4-4.5,1-9.1,2.1-13.5,3h-.2s-.2.1-.2.1c-5.5,1.4-8.9,5.6-9.2,11-.2,1.7-.3,3.4-.5,5.2,0,0,0,0,0-.1-.1-1.5-.2-2.9-.2-4.2,0-6.1-3.7-10.6-9.6-11.9h0s0,0,0,0c-9.1-2-18.5-4-27.6-6-5.2-1.1-10.5-2.3-15.8-3.5l-5.7-1.2s0,0,0-.1c19.7-6.6,39.6-13.4,58.9-20.1M184.4,141.1c.1,2.4.3,4.7.4,7.1,0,.6,0,1.1,0,1.6l-24,23.1h0c0,0,0,.1,0,.1-4.8,4.8-4.4,10.3-4.2,12.1v.2s0,.2,0,.2l2.2,18.8h0s0,0,0,0c.1,1.2.3,2.3.4,3.5,0,.8.2,1.5.3,2.3-2.4,3-4.8,6.1-7.1,9v-47.2c6.7-4.1,13.7-8.5,21.3-13.3,2.4-1.4,4.3-3.5,5.4-5.9,1.8-3.9,3.6-7.9,5.3-11.8M63.6,142.8h0s0,0,0,0c3.4,9.4,9.8,16.6,19.1,21.4h0s0,0,0,0c3.7,1.8,7.3,4.2,11,6.7.4.3.9.6,1.4.9v46.9c-2.3-2.9-4.5-5.7-6.7-8.6.8-8.5,1.8-17,2.7-25h0c0-.1,0-.2,0-.2.2-1.8.7-7.3-4.4-12l-23.6-22.8c.1-2.4.3-4.9.4-7.3M123.7,88.2c-.5,0-1,0-1.5.2-21.7,7.4-43.4,14.9-65.1,22.1-1.3.4-1.9,1-1.9,2.5-.1,2-.4,4.2-.4,6.3-.6,11.1-1.2,22-1.7,33.1-.1,1,.4,2.3,1.2,3.1,8.6,8.3,17.2,16.6,25.8,24.9,1.3,1.2,1.5,2.2,1.3,3.8-1,8.9-2,17.9-2.9,26.9-.1,1.3.4,3.1,1.3,4.1,4.5,6,9.2,11.8,13.8,17.8,3.8,5,7.6,9.8,11.7,15v-80.1c0-.7-.6-1.7-1.3-2.2-5.5-3.5-10.8-7.3-16.6-10.2-6.8-3.5-11.6-8.6-14.3-15.9-1.2-3.3-3.1-6.4-4.7-9.9,14.7,3.2,29.1,6.4,43.4,9.5,1.3.3,1.7.9,1.7,2.2,0,2.5.3,5,.4,7.4.6,6.7,1.2,13.3,1.7,20,.3,4.1.6,8,1,12.1.1.7,1,1.7,1.5,1.7h12.5c0-1.2.3-2,.3-3.1.4-4.4.6-8.9,1-13.4.7-8.3,1.5-16.7,2.2-25,0-1.2.4-1.6,1.6-1.9,6.6-1.3,13.3-2.9,19.8-4.4,7.6-1.7,15-3.3,22.9-5.1-2.9,6.6-5.7,13-8.6,19.2-.1.4-.7,1-1.3,1.3-8,5.1-16.2,10.2-24.3,15.1-1.5.9-1.9,1.7-1.9,3.3v79.4h.3c1-1.5,1.6-2.2,2.2-2.9,7.7-9.9,15.6-20,23.4-29.9,1.3-1.6,1.6-3.1,1.3-5-.3-2.3-.6-4.8-.9-7.1-.7-6.3-1.5-12.5-2.2-18.8-.1-1.7,0-2.9,1.3-4.2,8.6-8.3,17.2-16.6,25.8-24.9.6-.6,1.2-1.3,1.2-2,.3-1.7,0-3.6,0-5.4-.7-11.6-1.5-23.2-2.2-34.8-.1-1.3-.4-2-1.9-2.5-21.8-7.3-43.5-14.7-65.4-22.1-.5-.1-1.1-.2-1.6-.2h0Z"/>
  <path class="cls-1" d="M124.8,70.3c11.4,0,21.8,3,31.7,9.3,2.6,1.6,4.9,3.4,6.9,5.3-6-2-11.9-4-17.8-6-5.6-1.9-11.2-3.8-16.8-5.7h-.2c0,0-.2-.1-.2-.1-1.5-.4-3.1-.7-4.6-.7s-3.4.3-4.9.9c-12.3,4.1-23.5,7.9-34,11.5,7.7-7.4,17.4-11.8,29.3-13.6h0s0,0,0,0c3.6-.6,7.2-.9,10.6-.9M124.8,60.3c-4,0-8.1.3-12.2,1-15.6,2.3-29,8.9-39.3,21.1-5,5.8-8.3,12.5-9.9,20.2.7-.3,1.2-.4,1.7-.6,19.1-6.6,38-13,57.1-19.4.5-.2,1-.3,1.5-.3s1.3.1,1.8.3c14.1,4.8,28.1,9.5,42.1,14.3,5.5,1.9,10.9,3.6,16.7,5.7-3.2-14-10.9-24.1-22.5-31.4-11.6-7.4-24-10.9-37-10.9h0ZM184.4,102.6c0,.1,0,.2,0,.3v-.3s0,0,0,0h0Z"/>
  <path class="cls-1" d="M123.8,10h0c2.7,0,5.3.8,7.8,2.3-.7,4.1-1.3,8.1-2,12.2-2-.3-4-.5-6-.5-1.9,0-3.9.1-5.8.4l-2-12.1c2.5-1.6,5.2-2.4,7.9-2.4M123.8,0c-5.9,0-11.8,2.2-16.8,6.7-1.5,1.3-1.7,2.5-1.5,4.2,1,6.3,2,12.5,3.1,18.8.3,2.5.9,5.1,1.3,7.7,4.6-2.2,9.2-3.3,13.8-3.3,4.6,0,9.3,1.1,13.9,3.3h.1c1.5-9,2.8-17.5,4.2-25.9.3-1.9.4-3.5-1.5-5.1C135.4,2.1,129.6,0,123.8,0h0Z"/>
  <path class="cls-1" d="M123.7,39.5c-3.9,0-7.9,1-11.8,3-.6.3-1,1.3-1,2,.4,3.2,1.5,6.4,1.6,9.6.1,1.8.8,2.1,1.7,2.1s.9,0,1.4,0c4.1-.1,8-.4,12.1-.4s4.4.3,6.8.4v.3c.7-3.8,1.3-7.3,1.9-10.9.1-1.2.4-2.3-1-3.1-3.9-2-7.8-3-11.7-3h0Z"/>
  <path class="cls-1" d="M60.5,168.8c0,6.6.4,12.5,0,18.5-.3,4.4,1.5,7.6,4.2,10.5.4.4.7.9,1.2,1.3,2.3,2.9,4.6,5.7,7.3,9,.3-3,.6-5.4.9-7.9.4-4.8,1-9.6,1.5-14.4,0-.7-.1-1.9-.7-2.5-4.1-4.4-8.4-8.7-12.7-13.1-.4-.4-.9-.9-1.6-1.5h0ZM73.2,208.1c0,0,0,.1,0,.2h.1c0,0,0-.1-.1-.2h0Z"/>
  <path class="cls-1" d="M187.4,169.7c-5.1,4.7-10,9.3-15,14-.4.3-.4,1.2-.4,1.7.3,3.6.7,7.3,1.2,10.9.4,3.8.9,7.6,1.3,11.9h.1c3.9-4.8,7.4-9.3,11.1-13.5,1.2-1.6,1.6-3.1,1.6-5-.1-2.3.1-4.8.1-7.1v-13h0Z"/>
</svg>