<?xml version="1.0" encoding="UTF-8"?>
<svg id="Layer_1" data-name="Layer 1" xmlns="http://www.w3.org/2000/svg" version="1.1" viewBox="0 0 248 248">
  <defs>
    <style>
      .cls-1 {
        fill: #1d1d1b;
        stroke-width: 0px;
      }
    </style>
  </defs>
  <path class="cls-1" d="M50,141.6v47H10v-47h40M56.4,131.6H3.6C1.6,131.6,0,133.2,0,135.1v59.9c0,2,1.6,3.6,3.6,3.6h52.9c2,0,3.6-1.6,3.6-3.6v-59.9c0-2-1.6-3.6-3.6-3.6h0Z"/>
  <path class="cls-1" d="M144,79.7v108.9h-40v-108.9h40M150.4,69.7h-52.9c-2,0-3.6,1.6-3.6,3.6v121.8c0,2,1.6,3.6,3.6,3.6h52.9c2,0,3.6-1.6,3.6-3.6v-121.8c0-2-1.6-3.6-3.6-3.6h0Z"/>
  <path class="cls-1" d="M244.5,9.2h-52.9c-2,0-3.6,1.6-3.6,3.5v182.3c0,2,1.6,3.5,3.6,3.5h52.9c2,0,3.5-1.6,3.5-3.5V12.7c0-2-1.6-3.5-3.5-3.5ZM238,188.6h-40V19.2h40v169.4Z"/>
  <path class="cls-1" d="M8,225.5h232c1.2,0,2.2,1,2.2,2.3v5.4c0,1.3-1,2.3-2.2,2.3H8c-1.2,0-2.2-1-2.2-2.3v-5.4c0-1.3,1-2.3,2.2-2.3Z"/>
</svg>